<svg width="83" height="49" viewBox="0 0 83 49" fill="none" xmlns="http://www.w3.org/2000/svg">
<path d="M56.5012 34.1608C56.3313 33.7498 42.2207 5.99746 41.9924 5.61802C41.2492 3.85254 39.9485 2.29786 38.1542 1.25965C33.7691 -1.29107 28.1365 0.168744 25.5671 4.52184C23.8046 7.50471 23.9426 11.0778 25.6202 13.8499C25.7901 14.261 39.2955 40.8222 39.5238 41.2069C39.6937 41.618 39.8954 42.0133 40.129 42.398C40.8722 44.1635 42.1729 45.7181 43.9672 46.7616C48.3523 49.3123 53.9849 47.8525 56.5543 43.4994C58.3168 40.5166 58.1788 36.9434 56.5012 34.1714V34.1608Z" fill="url(#paint0_linear_302_3)"/>
<path d="M40.2085 15.3781C41.7534 13.7444 42.6983 11.5468 42.6983 9.13307C42.7036 4.08959 38.584 0 33.5036 0C30.3767 0 27.6215 1.54941 25.9545 3.91041C25.6519 4.23188 2.74463 32.2582 2.48981 32.6166C0.944959 34.2503 0 36.448 0 38.8617C0 43.9051 4.1196 47.9947 9.20008 47.9947C12.3269 47.9947 15.0822 46.4453 16.7438 44.0843C17.0464 43.7628 39.9537 15.7365 40.2085 15.3781V15.3781Z" fill="url(#paint1_linear_302_3)"/>
<path d="M79.6313 15.3781C81.1762 13.7444 82.1211 11.5468 82.1211 9.13307C82.1211 4.08959 78.0015 0 72.921 0C69.7942 0 67.0389 1.54941 65.372 3.91041C65.0694 4.23188 42.1621 32.2582 41.9073 32.6166C40.3624 34.2503 39.4175 36.448 39.4175 38.8617C39.4175 43.9051 43.5371 47.9947 48.6176 47.9947C51.7444 47.9947 54.4997 46.4453 56.1613 44.0843C56.4639 43.7628 79.3712 15.7365 79.626 15.3781H79.6313Z" fill="url(#paint2_linear_302_3)"/>
<defs>
<linearGradient id="paint0_linear_302_3" x1="15.2746" y1="-28.186" x2="76.3827" y2="27.7288" gradientUnits="userSpaceOnUse">
<stop stop-color="#7756DB"/>
<stop offset="0.760417" stop-color="#3BF4DE"/>
</linearGradient>
<linearGradient id="paint1_linear_302_3" x1="-11.5013" y1="-28.18" x2="49.108" y2="42.4982" gradientUnits="userSpaceOnUse">
<stop stop-color="#7756DB"/>
<stop offset="0.760417" stop-color="#3BF4DE"/>
</linearGradient>
<linearGradient id="paint2_linear_302_3" x1="27.9147" y1="-28.18" x2="88.5229" y2="42.5056" gradientUnits="userSpaceOnUse">
<stop stop-color="#7756DB"/>
<stop offset="0.760417" stop-color="#3BF4DE"/>
</linearGradient>
</defs>
</svg>
